# xmcd
#
# Track frame offsets:
#	150
#	21305
#	33290
#	46650
#	61902
#	80680
#	86665
#	89235
#	96185
#	112400
#	125090
#	140470
#	153085
#	169530
#
# Disc length: 2385 seconds
#
# Revision: 3
# Processed by: cddbd v1.5.2PL0 Copyright (c) Steve Scherf et al.
# Submitted via: EasyCDDAExtractor 10.2.0.1
#
DISCID=ba094f0e
DTITLE=Austin Lounge Lizards - Creatures From The Black Saloon
DYEAR=1984
DGENRE=Country
TTITLE0=The Golden Triangle
TTITLE1=Hot Tubs Of Tears
TTITLE2=Pflugerville
TTITLE3=The Car Hank Died In
TTITLE4=Swingin' From Your Crystal Chandeliers
TTITLE5=Kool Whip
TTITLE6=We Are In Control
TTITLE7=Didn't Go To College
TTITLE8=Saguaro
TTITLE9=Keeping Up With The Joneses
TTITLE10=The War Between The States
TTITLE11=Old And Fat And Drunk
TTITLE12=Chester Woolah
TTITLE13=Anahuac
EXTD=YEAR: 1984
EXTT0=
EXTT1=
EXTT2=
EXTT3=
EXTT4=
EXTT5=
EXTT6=
EXTT7=
EXTT8=
EXTT9=
EXTT10=
EXTT11=
EXTT12=
EXTT13=
PLAYORDER=
